<?xml version="1.0" encoding="UTF-8"?>
<svg id="Layer_1" data-name="Layer 1" xmlns="http://www.w3.org/2000/svg" viewBox="0 0 574.02 481.98">
  <defs>
    <style>
      .cls-1 {
        letter-spacing: .05em;
      }

      .cls-2 {
        letter-spacing: .12em;
      }

      .cls-3 {
        letter-spacing: .04em;
      }

      .cls-4 {
        fill: none;
        stroke: #f5865b;
        stroke-width: 4px;
      }

      .cls-4, .cls-5 {
        stroke-miterlimit: 10;
      }

      .cls-6 {
        fill: #ffd56b;
      }

      .cls-6, .cls-7, .cls-8 {
        stroke-width: 0px;
      }

      .cls-7 {
        fill: #f58659;
      }

      .cls-9 {
        letter-spacing: .2em;
      }

      .cls-10 {
        letter-spacing: .2em;
      }

      .cls-11 {
        font-family: MyriadPro-Regular, 'Myriad Pro';
        font-size: 39.14px;
      }

      .cls-11, .cls-5 {
        fill: #4e3a2f;
      }

      .cls-8 {
        fill: #8a9340;
      }

      .cls-5 {
        font-family: MoglanDemo, MoglanDemo;
        font-size: 91.36px;
        stroke: #4e3a2f;
        stroke-width: 2px;
      }

      .cls-12 {
        letter-spacing: .19em;
      }
    </style>
  </defs>
  <text class="cls-5" transform="translate(1 410.22)"><tspan class="cls-1" x="0" y="0">Ember Blo</tspan><tspan class="cls-3" x="439.73" y="0">o</tspan><tspan class="cls-1" x="495.28" y="0">m</tspan></text>
  <text class="cls-11" transform="translate(139.23 472.19)"><tspan class="cls-10" x="0" y="0">FOUN</tspan><tspan class="cls-12" x="128.43" y="0">D</tspan><tspan class="cls-2" x="161.78" y="0">A</tspan><tspan class="cls-9" x="190.55" y="0">TION</tspan></text>
  <path class="cls-8" d="M463.99,131.5c-21.36,21.28-29.35,48.91-39.73,75.4-16.89,43.12-48.89,70.92-91.18,87.76-7.15,2.85-14.63,4.95-22.08,6.91-2.82.74-6.01.12-9.35-1.39,1.43-.72,2.82-1.55,4.3-2.15,33.21-13.43,58.12-35,66.59-71.15,2.11-9.02.48-19.02-.07-28.54-.38-6.62-4.85-8.08-10.75-6.51-16.92,4.5-28.29,15.75-36,30.74-3.61,7.03-5.54,14.92-8.25,22.41-.75,2.07-1.56,4.12-2.34,6.18-1.09-.08-2.19-.15-3.28-.23-.18-7.35-1.89-15.04-.3-21.98,12.47-54.43,50.1-82.02,102.05-93.33,10.1-2.2,20.71-2.09,31.09-2.94,6.03-.49,12.07-.75,19.29-1.18Z"/>
  <path class="cls-8" d="M260,251.28c-.94-2.84-2.05-5.65-2.8-8.54-5.31-20.38-15.29-37.37-34.54-47.58-2.57-1.36-5.37-2.43-8.18-3.16-8.28-2.15-9.89-.51-11.73,7.74-8.56,38.46,17.95,72.37,47.85,89.41,7.29,4.16,15.12,7.37,25,12.12-4.95.47-7.84,1.5-10.29.86-45.84-11.91-82.99-36.09-106.65-78.05-6.1-10.82-10.01-22.95-14.36-34.69-7.71-20.84-16.44-41.03-34.27-58.82,21.14,2.34,40.2,2.7,58.41,6.8,42.09,9.48,73.71,33.41,90.54,74.01,5.1,12.31,7.44,25.85,3.48,39.33-.82.19-1.63.38-2.45.57Z"/>
  <path class="cls-6" d="M288.9,187.61c1.72-10.36,3.34-20.74,5.18-31.07,3.24-18.22,9.04-35.18,22.99-48.42,8.57-8.15,18.78-11.07,30.13-10.58,8.03.35,10.97,4.34,7,11.79-4.55,8.55-10.66,16.49-17.2,23.69-7.34,8.08-16.73,14.35-23.78,22.65-11.86,13.95-17.91,30.99-19.73,48.98-2.16,21.45-2.82,43.04-4.15,64.57-.15,2.48-.43,4.96-.65,7.43-.71.02-1.42.03-2.13.05-.23-1.81-.63-3.62-.66-5.44-.51-25.88-.06-51.72-6.2-77.27-5.34-22.24-16.6-39.79-34.01-54.4-8.66-7.26-15.92-16.42-22.74-25.51-2.5-3.33-3.66-9.69-2.16-13.3.98-2.33,7.93-3.13,12.15-2.98,21.61.75,32.78,15.34,40.27,32.99,4.08,9.62,5.61,20.34,8.09,30.62,2.09,8.66,3.9,17.39,5.83,26.09.59.04,1.17.09,1.76.13Z"/>
  <path class="cls-7" d="M287.64,113c-4.26-6.77-8-14.12-13.04-20.44-12.77-16-10.26-21.89-2.18-37.99,2.95-5.88,9.99-13.43,15.15-13.42,5.08.01,11.75,7.78,14.88,13.66,7.49,14.08,11.54,23.47-2.65,38.35-5.35,5.61-8.35,13.45-12.16,19.83Z"/>
  <path class="cls-4" d="M159.97,129.04c0-70.16,56.88-127.04,127.04-127.04s127.04,56.88,127.04,127.04"/>
</svg>